<svg xmlns="http://www.w3.org/2000/svg" viewBox="0 0 256 256" fill="none" shape-rendering="auto"><desc>"Croodles - Doodle your face" by "vijay verma", licensed under "CC BY 4.0". / Remix of the original. - Created with dicebear.com</desc><metadata xmlns:dc="http://purl.org/dc/elements/1.1/" xmlns:cc="http://creativecommons.org/ns#" xmlns:rdf="http://www.w3.org/1999/02/22-rdf-syntax-ns#"><rdf:RDF><cc:Work><dc:title>Croodles - Doodle your face</dc:title><dc:creator><cc:Agent rdf:about="https://vijayverma.co/"><dc:title>vijay verma</dc:title></cc:Agent></dc:creator><dc:source>https://www.figma.com/community/file/966199982810283152</dc:source><cc:license rdf:resource="https://creativecommons.org/licenses/by/4.0/" /></cc:Work></rdf:RDF></metadata><mask id="viewboxMask"><rect width="256" height="256" rx="0" ry="0" x="0" y="0" fill="#fff" /></mask><g mask="url(#viewboxMask)"><path d="m176 91.2.3.4c.3.1.7.4.9.7a81 81 0 0 1 8 27.7c4.7-1.6 11.8 2 11.8 10 0 4-.3 6.7-1 9-.6 2.3-1.6 4-3 5.8a9.4 9.4 0 0 1-7.7 3.3 71.7 71.7 0 0 1-26.1 49.2 51.6 51.6 0 0 1-37.2 11.4 43.6 43.6 0 0 1-30.2-18 114.1 114.1 0 0 1-19.5-42.3c-1.5.2-3.8 0-6-1.2-3-1.5-5.7-4.7-6.8-10.6-1-5.3-.4-10 1.7-13a8 8 0 0 1 4.3-3.1c1.5-.5 3.2-.5 5 0A42.2 42.2 0 0 1 96 84.3a90.3 90.3 0 0 1 26.3-7.5c19.1-2.5 40.5.5 53.7 14.4Z" fill="#ffffff"/><g stroke="#000" stroke-width="3" stroke-linecap="round" stroke-linejoin="round"><path d="M81.3 95c-17 17-15 61 11 96.5 15 20.5 42.2 25.1 66.7 6.5 34.5-26.2 30.5-83 18-106"/><path d="M186.4 121.4c3.6-1.9 10.7.8 10.7 8.7 0 7.8-1.1 10.8-3.7 14.2-2 2.6-5.6 3.2-8 2.7M69.7 121.9c-7.7-2.4-12.2 4-10.2 14.6 2.1 11.4 10.2 11.3 12.5 10.8"/></g><g transform="translate(112 123)"><path d="M13.3 12C15 28 20.7 22.4 23 31.3c2 7-9.2 7.7-12.1 5.4" stroke="#000" stroke-width="3" stroke-linecap="round" stroke-linejoin="round"/></g><g transform="translate(60 128)"></g><g transform="translate(95 180)"><path d="M17 12a88 88 0 0 0 36.2 0" stroke="#000" stroke-width="3" stroke-linecap="round" stroke-linejoin="round"/></g><g transform="translate(-1 -13)"><g stroke="#f24e1e" stroke-linecap="round" stroke-linejoin="round"><path d="m82 98 7.5 9.3L82 91l12.5 17.8L83.3 84l19.4 26.2L95.9 91c5.7 8.3 17 24.1 16 21.3-.9-2.8-5.6-12.8-8-17.5l17.5 19L115 96l13.8 16.3-2.5-13 10 11-2.3-15.5 10 15.5-5-18.2 13.2 16.7-4.5-19.2 12 17.7-5.4-19.6 10.9 18.3-5.5-19.7 11 18-5.5-20.2 11 18-5.5-20" stroke-width="6"/><path d="M54 65.6C77 54.4 125 32 134.3 32c9.4 0 51.6 15.6 71.6 23.4L124 99.2 57.8 63.7" stroke-width="3"/><path d="m195.8 57.1-4.2-5.2-3.2 11-3.1-13.8-5.8 18.5-2-21.7-6.6 27.5a110 110 0 0 0 0-29.6c-2.4-8.2-3.5 30.8-5.9 23.8-1.8-5.6-3-22-3.8-27.3v36L154 39v41.2l-5.5-43-3.2 46-5.5-47.8-3.9 56.1-4-56.1-2.3 59.5-6.3-57.7-2.4 57.7-4.6-55.9-5.3 52.5-2.6-49.7-4.9 45-3.4-40.9-3.6 37.3-2-34-5.4 31L87.5 52c-1 7.8-3.6 23.7-5.2 24.4-2 1-1.7-11.8-1.3-20 .3-6.7-3 5.7-5.4 13.6l-3-11-2.4 8.7L66 63" stroke-width="6"/><path d="M79.1 76.5V104c0 3.2 34.6 12.1 42.4 12.1 6.3 0 40.3-8 56.6-12.1V71.7M55.8 67 50 108.5M56.3 66.4v40M57 66.4l3.5 38" stroke-width="3"/></g></g><g transform="translate(67 152)"></g><g transform="translate(71 102)"><g stroke="#000" stroke-width="3" stroke-linecap="round" stroke-linejoin="round"><path d="M20.8 12.3c1.7-1.3 6.2-2.6 11.3-2 4.5.7 6.4 2.3 7.7 4.3M72.9 14.2c2-3 5.7-3.7 8-4 2.4-.2 5.1-.2 7.3.4M4 21.2l13.7 6.5M48.2 31.5a31.5 31.5 0 0 1 20.5-1.8M96.9 27.3a193 193 0 0 0 13.1-8.6M24.6 49.9c-5-3.1-10.5-15.7-5.9-22.7 5.3-7.8 23.8-8.7 28.1 2.4 2.6 6.5 1.6 12.7 1 14.3-1.9 4.5-10.3 13.9-23.2 6ZM95.5 26.5c-5.6-8-21-8.3-25.4.4-1.9 3.7-3 14.2 4.4 20.2 3.8 3 18 8.2 22.8-5.2 2.2-6.3.4-12.2-1.8-15.4Z"/><path d="M34.4 29.8c-.4.2-1.1 1-.8 1.8.4 1.2 3.4 2.5 3.5.9.1-1.7-.5-2.3-1.2-1.6M81 27.7c-.6.5-1.7 1.8-1 2.3 1 .6 4.2 2.3 4 0-.3-1.9-1.1-1.7-1.5-1.4l-.9.7"/></g></g></g></svg>