<svg xmlns="http://www.w3.org/2000/svg" viewBox="0 0 256 256" fill="none" shape-rendering="auto"><desc>"Croodles - Doodle your face" by "vijay verma", licensed under "CC BY 4.0". / Remix of the original. - Created with dicebear.com</desc><metadata xmlns:dc="http://purl.org/dc/elements/1.1/" xmlns:cc="http://creativecommons.org/ns#" xmlns:rdf="http://www.w3.org/1999/02/22-rdf-syntax-ns#"><rdf:RDF><cc:Work><dc:title>Croodles - Doodle your face</dc:title><dc:creator><cc:Agent rdf:about="https://vijayverma.co/"><dc:title>vijay verma</dc:title></cc:Agent></dc:creator><dc:source>https://www.figma.com/community/file/966199982810283152</dc:source><cc:license rdf:resource="https://creativecommons.org/licenses/by/4.0/" /></cc:Work></rdf:RDF></metadata><mask id="viewboxMask"><rect width="256" height="256" rx="0" ry="0" x="0" y="0" fill="#fff" /></mask><g mask="url(#viewboxMask)"><path d="M73.3 106.5c2-5.5 4-9.8 5.4-12.2-.1-.4 0-.8.1-1.1 3-4.9 9-9.3 16.4-12.9a90.7 90.7 0 0 1 26.3-7.5c19.2-2.5 40.7.5 53.9 14.4.2.3.4.6.4 1 1 1.1 2.2 3.2 3.6 6a109 109 0 0 1 4.4 10.2c1.4-.5 3-.7 4.6-.5a7 7 0 0 1 5.4 3.3c2 3.5 2.9 10 1.6 15.8a6.7 6.7 0 0 1-2.6 4.2 6 6 0 0 1-2.3 1c.5 2.8 1 5.6 1.3 8.5 2.8 23.3-1.3 49.6-26 62.6-23.6 12.4-47 16-65.6 12.3-18.7-3.8-32.6-15-36.7-32.5-3.2-13.5-1.3-31 2.2-46.7-1.5-.3-3-1.4-3.9-3-1.3-2.1-2-5.2-1.7-9.2.5-6.2 2.1-10.6 4.8-12.8a7 7 0 0 1 4.6-1.8 9 9 0 0 1 3.8.9Z" fill="#ffffff"/><g stroke="#000" stroke-width="3" stroke-linecap="round" stroke-linejoin="round"><path d="M79 93.7c-6 10-22.2 57.6-15.5 86.4 8.1 34.4 54.6 44.9 102.1 19.7C214.3 174 182.2 95.5 175.3 88"/><path d="M184.3 105.4c2.6-1.1 7.4-1.3 9.3 2 1.8 3.2 2.7 9.3 1.4 15.1-.7 3.3-3 4.3-5 4.3M72.5 107.8c-5.9-3.5-11.4-.2-12.4 12.2-.7 7.9 2.9 11.4 5.4 11"/></g><g transform="translate(116 120)"><path d="M20.8 8c2.7 8 7.6 25.3 5.8 29.4-2.1 5-5.4-2.3-5.4 3.5-1 2.8-3.8 3.2-5.1-1.6-1.3-4.7-5.2 3.5-6.5 1.6-3.6-1.6-.7-7.1 1.2-8.9" stroke="#000" stroke-width="3" stroke-linecap="round" stroke-linejoin="round"/></g><g transform="translate(57 132)"></g><g transform="translate(86 184)"><path d="M19.5 10c-1.3 2.1.4 7.7 15.3 6.8 14.9-1 19-9 14.5-8.8-6.2.2-10.7 4.2-20.1 2-3.4-.7-8.5-2-9.7 0Z" stroke="#000" stroke-width="3" stroke-linecap="round" stroke-linejoin="round"/></g><g transform="translate(-2 -17)"><g stroke="#0fa958" stroke-width="3" stroke-linecap="round" stroke-linejoin="round"><path d="M116.5 77c11.4-6.3 49-9 61 29.4 18 58.5 31.5 61.8 38.3 66.5"/><path d="M185 144c5.4 32.3-.3 71.4 1.3 85.3 2 17.5 5.4 22.2 14.8 28.3"/><path d="M169.5 76c17.5 18 12.5 37 8 117.5-2 34.9 16 48.3 20.6 50.5"/><path d="M117.6 76.8c8.1-7.3 34.4-15.3 53.4 0 17.7 14.4 21.8 33.6 22.6 81.4.5 33.8 4.7 43.2 6.7 43.6M115.6 77.5A71.7 71.7 0 0 0 78 142.7c0 33 4 82-13.4 104.2"/><path d="M114.7 76a56 56 0 0 0-42.3 51.7c-3.4 31.6 2 76-9.4 102.9"/><path d="M46.4 241.5c-.2-10.3.3-33.8 4-45 4.7-14.2 3.5-88.7 32.3-111 17.5-13.4 33-12.7 36.3-10M119 74.8c3.3-8 20.3-18 44.3-9.4 30.3 10.8 48.4 39.8 43.7 76.1-4.5 34.6-19.7 79.4-1 108"/><path d="M117.6 72.8c2.7-8.3 13.2-23.4 33.6-17.5 25.6 7.4 49.8 31.6 53.1 95.5 3.4 63.8-10 86 24.2 114.9M116.3 72.1c-10.8-7.4-38.3 2-57.1 37.7C39.9 146.2 43.7 217.3 37 234"/><path d="M119 74.2c-2.7-7-12.4-19-29.6-11.5-21.5 9.4-37 24.9-47 84.7-10.1 59.8 6 74.6-2 102.8M120 80.5a67 67 0 0 0 2.8 21.9M125 79c1.5 5.5 4.5 18.5 9.5 23M131.5 78c4.5 8.5 10.2 18.9 12.3 23.7M142.5 78c7.5 3 15.5 10.5 20 17.5M137 78c5 3 10.3 13.2 16.3 19.7M115 85c-.3 3.5-1.8 11.7-6 16"/><path d="M99.5 97c2-1.3 5.5-6 11-12.5M60.5 171.6c.5 11.6-1.6 36.7-2.7 46.4-1.3 12-6 23.5-10.7 30.2"/></g></g><g transform="translate(71 151)"><g stroke="#000" stroke-width="3" stroke-linecap="round" stroke-linejoin="round"><path d="M61 24.9c-14.7 2.1-46 8-58 11.5M126.8 22.4c-14.7 2.1-46.5 1-58.5 1.7"/><path d="M60.3 25.3c-14.7 2-38 11.6-51.5 13.1M123.5 26.2c-14.8 2.1-40.6-1.6-53.9-1.6M61 24.2C46.4 26.3 15.9 30 3.6 31.7M128 17c-14.7 2.1-47.5 4.4-59.8 6.2"/></g></g><g transform="translate(71 89)"><g stroke="#000" stroke-linecap="round" stroke-linejoin="round"><path d="M34 27.7c7-2.6 13.2 5.2 13.2 10.9 0 6.8-5.3 12.5-10.3 12.5-5 0-9.9-5.7-9.9-12.5 0-5.7 4-9.8 7.8-11.3M77.4 23.2c6.6-2.6 11 5.4 11 11 0 6.8-3.8 12.6-8.5 12.6-4.6 0-9-4.7-9-12.2C71 27 74.5 24.4 78 23" stroke-width="3"/><path d="M40.1 40.5s0 0 0 0M82 38.2s0 0 0 0" stroke-width="6"/><path d="M28.2 19.3c2.8-3.2 10-7.9 17-1.6M66.2 15.1c4.3-4.2 14.4-10.4 20-1.8" stroke-width="3"/></g></g></g></svg>