<svg xmlns="http://www.w3.org/2000/svg" viewBox="0 0 256 256" fill="none" shape-rendering="auto"><desc>"Croodles - Doodle your face" by "vijay verma", licensed under "CC BY 4.0". / Remix of the original. - Created with dicebear.com</desc><metadata xmlns:dc="http://purl.org/dc/elements/1.1/" xmlns:cc="http://creativecommons.org/ns#" xmlns:rdf="http://www.w3.org/1999/02/22-rdf-syntax-ns#"><rdf:RDF><cc:Work><dc:title>Croodles - Doodle your face</dc:title><dc:creator><cc:Agent rdf:about="https://vijayverma.co/"><dc:title>vijay verma</dc:title></cc:Agent></dc:creator><dc:source>https://www.figma.com/community/file/966199982810283152</dc:source><cc:license rdf:resource="https://creativecommons.org/licenses/by/4.0/" /></cc:Work></rdf:RDF></metadata><mask id="viewboxMask"><rect width="256" height="256" rx="0" ry="0" x="0" y="0" fill="#fff" /></mask><g mask="url(#viewboxMask)"><path d="M73.7 93.5a45.6 45.6 0 0 1 7.2-17c3-5 9-9.5 16.4-13a90.1 90.1 0 0 1 26.4-7.7c19-2.5 40.2.5 53.5 14l.6.4c7.8 7.5 9.5 18.5 9.2 30.3v1.3c1.5.3 3.3 1.3 4.8 3.2 1.8 2.4 2.8 6.3 1.8 12a21.4 21.4 0 0 1-2.9 8.1l-.8 1.5c-.8 1.4-1.6 2.9-2.7 3.8a4 4 0 0 1-3 .9l-.5 6.4c-2.2 37-4.7 59.8-22.1 79.2-16.9 18.7-43.6 13.3-57 0-10.7-10.7-28.5-33-32-83.4-1.9.3-3.7-1-5-3-1.6-2.4-3-6.1-4.1-11.8-1-5.5-.3-9.4 1.5-12a8.2 8.2 0 0 1 6.8-3.4h.5c.3-3.7.8-7 1.4-9.8Z" fill="#ffffff"/><g stroke="#000" stroke-width="3" stroke-linecap="round" stroke-linejoin="round"><path d="M186.4 102.2c2.3 0 8.3 2.7 6.4 13.8-.9 4.9-2 6-3.7 9.2-1.5 2.8-2.7 4.9-5.5 3.6M70.4 103.8c-3.8 0-9 3.2-7 13.8 2.2 11.4 5.6 14.4 7.9 13.7"/><path d="M82.2 74.4C75 84.8 70.4 94 72.7 131c3.2 51.9 21.4 74.5 32.2 85.2 13.1 13 39.3 18 55.7 0 17.3-19.2 19.8-41.8 22-79.2 1.5-24.9 9.4-52.8-5.4-67"/></g><g transform="translate(117 131)"><path d="M13.3 12C15 28 20.7 22.4 23 31.3c2 7-9.2 7.7-12.1 5.4" stroke="#000" stroke-width="3" stroke-linecap="round" stroke-linejoin="round"/></g><g transform="translate(63 147)"><path d="M17 46s0 0 0 0M12 41.4s0 0 0 0M104 37s0 0 0 0M93.7 46s0 0 0 0M33.4 44.9s0 0 0 0M22.9 56s0 0 0 0M30.3 70.4s0 0 0 0M82.8 73.3s0 0 0 0M95 72s0 0 0 0M78.2 64.3s0 0 0 0M118.3 33s0 0 0 0M118.8 42.7s0 0 0 0M109 49.1s0 0 0 0M102 63.8s0 0 0 0M92.5 59.4s0 0 0 0M55 73.3s0 0 0 0M68.3 78s0 0 0 0M46.6 64.9s0 0 0 0M41 74.8s0 0 0 0M67.4 64.3s0 0 0 0M31.1 56s0 0 0 0" stroke="#000" stroke-width="3" stroke-linecap="round" stroke-linejoin="round"/></g><g transform="translate(100 194)"><path d="M13.6 13.8c4.7 4 13.5 6.5 22.5 5.4A25 25 0 0 0 54.9 8.5M10 16.5c1.6-1 4.8-3.7 5-6.6M53.1 6c1 1.6 3.8 4.8 6.6 5" stroke="#000" stroke-width="3" stroke-linecap="round" stroke-linejoin="round"/></g><g transform="translate(0 -34)"><g stroke="#ffc700" stroke-width="3" stroke-linecap="round" stroke-linejoin="round"><path d="M158.8 105.2c5.3-4.6 7.4-13.1 3.3-23.6-2.5-6.4-5.2-7.2-9.8-15M96 110.4c-21 1.3-16.2-33.5 15.7-39.3"/><path d="M101.9 109c-13.1-10.4-2.6-39.8 37.3-46.4M168 108.4c7.2-4 17-23.5-8.5-37.3M141.1 101.9c-5.8-5.3-4.5-22.3 4.6-31.4M71.1 125.4C60.6 121 62.6 94.7 85 88.8"/><path d="M79.6 120.9c3.3-9.2-9.8-15 2.6-25.6M185 122.2c5.9 0 9.8-14.4 0-25M111.7 106.5c-9.8-2.7-7.9-26.9 19.6-37.3"/><path d="M120.9 104.5c-6.6-5.9-4.6-21 20.2-37.3"/><path d="M130.7 102.5c-5.3-3.2-6-30.7 14.4-36.6M145.7 91.4c0-5.2 2.6-6.5 2.6-14.4M148.3 101.2c4-3.2 9.2-13.7 5.3-24.2M146.4 54.8c-2.6-26.2 21.3-35 54.3-30.8 41.2 5.2 23 80.3 45.8 111"/><path d="M154.2 52.1c11.2-17.6 30.8 5.3 35.4 28.2 4.2 21.2 20.3 47.8 52.3 36.6"/><path d="M140.5 52.1c-4 1.3-6.5 7.4 3.3 10.5 10.4 3.3 16.3-2.6 14.4-5.9"/><path d="M144 44.3c-4 1.3-6.5 7.4 3.3 10.5 10.5 3.2 16.3-2.7 14.4-6M170.6 41.7c4.6-4 23.4-8.3 30.8 11 9.1 24.3 12.4 30.2 24.2 33.5"/><path d="M179.1 45.6c15 0 11.1 47.1 38.6 47.1"/><path d="M154.9 43.6c9.8-14.4 38-23.5 51.7 1.3 9.2 19.7 7.2 49 23 65.3M177.1 112.4c6-1.4 7.9-9.2 2.7-18.4"/></g></g><g transform="translate(72 160)"></g><g transform="translate(72 89)"><path d="M35.5 48c-.7-.6-5.1-2.3-7.4-6.2-2.3-3.8-2.5-7.7 0-9.3 1.6-1.2 5.1.6 7.4 2.2M36.4 34c1.5-1.6 4.1-3 6.7-1.6 1.8 1 1.6 7.1 0 9.4-1.2 1.9-5.2 5-6.7 6M77.7 33.3c-2.2-2.1-7.1-5.4-9.2-1.7-2.6 4.6 5.6 13 10.2 14.8M79.8 47c2.2-1.7 7-5.4 7.8-6.6 1-1.5 2.8-8 0-10.6-2.8-2.6-8.6 1-8.6 5.2M26 18.3c.6-1.4 3-4.2 7-3.7 5.2.6 6.2 1.5 7.4 3.7M72.2 16.2c.5-1.7 3-4.8 8.2-4 5.2.6 7 3.5 7.3 4.9" stroke="#000" stroke-width="3" stroke-linecap="round" stroke-linejoin="round"/></g></g></svg>