<svg xmlns="http://www.w3.org/2000/svg" viewBox="0 0 256 256" fill="none" shape-rendering="auto"><desc>"Croodles - Doodle your face" by "vijay verma", licensed under "CC BY 4.0". / Remix of the original. - Created with dicebear.com</desc><metadata xmlns:dc="http://purl.org/dc/elements/1.1/" xmlns:cc="http://creativecommons.org/ns#" xmlns:rdf="http://www.w3.org/1999/02/22-rdf-syntax-ns#"><rdf:RDF><cc:Work><dc:title>Croodles - Doodle your face</dc:title><dc:creator><cc:Agent rdf:about="https://vijayverma.co/"><dc:title>vijay verma</dc:title></cc:Agent></dc:creator><dc:source>https://www.figma.com/community/file/966199982810283152</dc:source><cc:license rdf:resource="https://creativecommons.org/licenses/by/4.0/" /></cc:Work></rdf:RDF></metadata><mask id="viewboxMask"><rect width="256" height="256" rx="0" ry="0" x="0" y="0" fill="#fff" /></mask><g mask="url(#viewboxMask)"><path d="M73.3 106.5c2-5.5 4-9.8 5.4-12.2-.1-.4 0-.8.1-1.1 3-4.9 9-9.3 16.4-12.9a90.7 90.7 0 0 1 26.3-7.5c19.2-2.5 40.7.5 53.9 14.4.2.3.4.6.4 1 1 1.1 2.2 3.2 3.6 6a109 109 0 0 1 4.4 10.2c1.4-.5 3-.7 4.6-.5a7 7 0 0 1 5.4 3.3c2 3.5 2.9 10 1.6 15.8a6.7 6.7 0 0 1-2.6 4.2 6 6 0 0 1-2.3 1c.5 2.8 1 5.6 1.3 8.5 2.8 23.3-1.3 49.6-26 62.6-23.6 12.4-47 16-65.6 12.3-18.7-3.8-32.6-15-36.7-32.5-3.2-13.5-1.3-31 2.2-46.7-1.5-.3-3-1.4-3.9-3-1.3-2.1-2-5.2-1.7-9.2.5-6.2 2.1-10.6 4.8-12.8a7 7 0 0 1 4.6-1.8 9 9 0 0 1 3.8.9Z" fill="#ffffff"/><g stroke="#000" stroke-width="3" stroke-linecap="round" stroke-linejoin="round"><path d="M79 93.7c-6 10-22.2 57.6-15.5 86.4 8.1 34.4 54.6 44.9 102.1 19.7C214.3 174 182.2 95.5 175.3 88"/><path d="M184.3 105.4c2.6-1.1 7.4-1.3 9.3 2 1.8 3.2 2.7 9.3 1.4 15.1-.7 3.3-3 4.3-5 4.3M72.5 107.8c-5.9-3.5-11.4-.2-12.4 12.2-.7 7.9 2.9 11.4 5.4 11"/></g><g transform="translate(116 120)"><path d="M20.8 8c2.7 8 7.6 25.3 5.8 29.4-2.1 5-5.4-2.3-5.4 3.5-1 2.8-3.8 3.2-5.1-1.6-1.3-4.7-5.2 3.5-6.5 1.6-3.6-1.6-.7-7.1 1.2-8.9" stroke="#000" stroke-width="3" stroke-linecap="round" stroke-linejoin="round"/></g><g transform="translate(57 132)"></g><g transform="translate(86 184)"><g stroke="#000" stroke-width="3" stroke-linecap="round" stroke-linejoin="round"><path d="M11 11.2c3 1.1 9.3 3 24.3 1.7C54 11.2 54.3 9.6 58.7 7"/><path d="M35.7 7.6A36.7 36.7 0 0 0 17 12.7c15.7 12.4 34.8 0 34.8-2.6-2.4-1-2.4-3.3-16-2.5Z"/></g></g><g transform="translate(-2 -17)"><g stroke="#f24e1e" stroke-width="3" stroke-linecap="round" stroke-linejoin="round"><path d="M137.5 84.8c-15 7-44.6 17.5-81.5 21.5M139 65.9a46 46 0 0 1 29 8.4c15.5 11.5 42.5 14 56.5 19M141.5 70.9c16 2.5 38.5 24 87.5 33.5M133.5 65.8c-16.5-4.5-29-.4-46.5 10.6M58.5 83.9c9.5-3.5 21-5.5 30-14M110 74.8c-17.5 3.9-48.5 14-63.5 16.5M135.5 74.3c-9.5 7-27.5 10-44.5 15M135 80.8c-24 12.5-58.5 9.5-87 24.5M35 104.3c23.5-14 73.5-20.5 90-31.5M139.5 81.3c7.8 8.6 20.8 22.9 29 28.5 9.8 6.7 16.2 10.6 27 10M140 74.8c11.5 6 24.4 21.4 49 25a58 58 0 0 1 32 14"/><path d="M146 83.3c7.2 6.2 15.9 13.4 27 18.6 13 6 25 9.5 35 9.5M88.5 106.3a74 74 0 0 0-25 9M102.5 72.3c9-2 24.5-4.5 33.5-2M169 103.8c12 11 31.5 8 37.9 20.8"/></g></g><g transform="translate(71 151)"></g><g transform="translate(71 89)"><g stroke="#000" stroke-width="3" stroke-linecap="round" stroke-linejoin="round"><path d="M23.2 17.6c1.6.8 6 1.7 11.2 1.3 4.5-.4 6.5-1.5 7.8-2.9M75.2 15c2.1 1.9 5.9 2.3 8.3 2.3 2.3.1 5 0 7.1-.4M4 18.5 17.7 26M48.2 29.8A31.5 31.5 0 0 1 68.7 28M96.9 25.6c2.5-1.3 10.6-7.7 13.1-9.6M18.1 26.6c-.3 3.7-1.7 15.6 0 17.6 2.6 3 27.8-1 29.5-1.5 1.6-.6 2-8.8-.5-15.4-2.2-5.5-20.8-3.1-28.4-1.8"/><path d="m19.5 31.9 2.8-5.4c-.8 3.3-3 11-2.8 12 .3 1.2 5.7-12.6 6.3-12.6.6.1-4.5 16-4.5 17s6-17 6.9-17c.9 0-4.2 15.6-3.6 16.5.6 1 5.4-16 6.2-16.9.7-.9-4.3 18.2-3.4 18.1.8 0 6.1-21 6.9-19 .7 2-4.9 21.2-3 19.5 2-1.6 5.4-21 6.8-19.5 1.4 1.5-3.6 20-2.4 19.5 1.3-.5 4.6-17.6 5.2-17.6.6 0-1 17.1-.5 17.1s3.3-14 3.7-15.1c.3-1.2 1-.5 1 3.4-.1 3-1.3 9-1.6 11l3-7.6M70.8 33l2.8-7c-.8 3.3-2.3 10-2 10.9.2 1.2 5-11.5 5.5-11.4.6 0-3.5 13.1-3.5 14 0 1 5-14 5.9-14 .9 0-3.6 14.8-3 15.7.6.9 4.8-15.3 5.6-16.2.7-.9-4.3 18.2-3.4 18.1.8 0 6.1-21 6.9-19 .7 2-5.1 20.7-3.2 19 2-1.6 5.6-20.5 7-19 1.4 1.5-3.6 20-2.4 19.6C88.3 43 91.6 26 92.2 26c.6 0-1 17-.5 17s2.7-12.7 3-13.9c.4-1.1 1.3-.5 1.2 3.3 0 3.1-.8 7.9-1.1 9.9l3-7.6"/><path d="M70.5 24.8c6-2.7 22.2-1 25.2 0 3.8 1.1 3.6 14.7 3.3 18-.4 3.4-22.1.2-26.8 0-3.7-.1-3-12.7-2.1-17.6"/></g></g></g></svg>