<svg xmlns="http://www.w3.org/2000/svg" viewBox="0 0 256 256" fill="none" shape-rendering="auto"><desc>"Croodles - Doodle your face" by "vijay verma", licensed under "CC BY 4.0". / Remix of the original. - Created with dicebear.com</desc><metadata xmlns:dc="http://purl.org/dc/elements/1.1/" xmlns:cc="http://creativecommons.org/ns#" xmlns:rdf="http://www.w3.org/1999/02/22-rdf-syntax-ns#"><rdf:RDF><cc:Work><dc:title>Croodles - Doodle your face</dc:title><dc:creator><cc:Agent rdf:about="https://vijayverma.co/"><dc:title>vijay verma</dc:title></cc:Agent></dc:creator><dc:source>https://www.figma.com/community/file/966199982810283152</dc:source><cc:license rdf:resource="https://creativecommons.org/licenses/by/4.0/" /></cc:Work></rdf:RDF></metadata><mask id="viewboxMask"><rect width="256" height="256" rx="0" ry="0" x="0" y="0" fill="#fff" /></mask><g mask="url(#viewboxMask)"><path d="M73.9 102a57.1 57.1 0 0 1 5-14.8c2.8-4.9 8.7-9.3 16.2-12.8a89.7 89.7 0 0 1 26.2-7.6c19-2.5 40.4.5 53.6 14.5.3.3.4.7.3 1.2 2.1 4 4.3 9.8 6.3 16.8 1.3-.5 3-.9 4.6-.7 2 0 4 .9 5.2 3 2 3.6 2.2 9.1.7 15.4a7.4 7.4 0 0 1-3 4.7c-.9.5-1.7.8-2.5 1 1.2 7.8 2.1 16 2.5 24.3.5 13.2-.3 26.3-3.3 37.3-3 11-8.4 20-17 24.7a78.6 78.6 0 0 1-56 8 51 51 0 0 1-37.2-31.5 161.1 161.1 0 0 1-5.1-49.6 246 246 0 0 1 .3-8.4 4.9 4.9 0 0 1-4.9-2.1 17.4 17.4 0 0 1-2.6-8.2c-.7-5.7.2-10 2.3-12.8a7 7 0 0 1 4-2.7c1.4-.4 3-.2 4.4.3Z" fill="#ffffff"/><g stroke="#000" stroke-width="3" stroke-linecap="round" stroke-linejoin="round"><path d="M79 87.3c-10.5 19.4-10.9 77.8-3.3 99 11.5 32.3 56.4 43.4 93.3 23.3 33.3-18.1 18-105 6.1-127.6"/><path d="M183 100.2c2.5-1.1 6.8-1.7 8.6 1.5 1.9 3.2 2 8.4.6 14.7-1 4-3.8 4.8-5.7 4.8M72.7 103c-6-2.6-10.8 2.6-9.5 13.7 1 7.8 3.4 9.6 6 9.3"/></g><g transform="translate(115 126)"><path d="M21.7 10c5 4 12 23 6 29S19 34.3 14 34.3c-5.1 0-9 6-8.5-1 .4-5.6 4-5.5 4.7-5.8" stroke="#000" stroke-width="3" stroke-linecap="round" stroke-linejoin="round"/></g><g transform="translate(61 138)"></g><g transform="translate(98 188)"><path d="M15 14s4.2 1.6 7 0c2.9-1.5 3-5.9 5.2-3.6 2.6 3 3 4.9 4.5 6.3 1.5 1.5 2.6-5 3.9-7 1.2-2.3 4.6 6.1 6.6 6.1 1.9 0 1.4-9.5 3.6-7.5 2.1 1.9 1.8 5.4 8.8 3.4" stroke="#000" stroke-width="3" stroke-linecap="round" stroke-linejoin="round"/></g><g transform="translate(-2 -23)"><g stroke="#0fa958" stroke-width="3" stroke-linecap="round" stroke-linejoin="round"><path d="M129.8 67c-13.8 3.3-28 1.2-43.5 16M133.5 65.5c17.5-11.7 46.2 4.2 49.9 24.4M133 72.4c9 17 23.9 32.6 50.4 25.1"/><path d="M133 67.6c10.6 13.3 29.7 21.2 47.7 25.5M73 105.5c17.3 3 52.6-9 55.5-29.7M72 102.3C75.2 66 120.8 52.8 130.9 66"/><path d="M129.3 70.3c-9.3 8.5-24.4 17-47.2 22.3M115.5 84c-8.5 9.4-16 15.4-38.7 19.2M135.7 67c6.1-1.1 25.4 0 38.2 17"/></g></g><g transform="translate(71 156)"></g><g transform="translate(70 84)"><g stroke="#000" stroke-width="3" stroke-linecap="round" stroke-linejoin="round"><path d="M30.5 41.3c-5.1.3-8.2-4-9.2-6C27 30 35.5 33 39.1 35c-.7 2-3.4 6-8.6 6.3Z"/><path d="M28.6 37.2c.8.5 2.7 1.1 4-.8 1.6-2.4-2.4-5-3.7-3.8-1 1-.6 2.4-.2 3M90.7 35.2c1-.4 2.6-1.8 1.6-4-1.2-2.8-5.8-.8-5.5 1 .3 1.5 1.9 2 2.6 2"/><path d="M90.7 38.8c-5 1.2-9-2.8-9.8-5.5 4.6-6 15-3.5 17.6-1.3-.4 2-2.8 5.7-7.8 6.8ZM17.3 21c5.5-1.1 18.3-1.5 25.2 5.1M75.6 25.7c3.3-5.4 14.2-11.2 22-7.6"/></g></g></g></svg>