<svg xmlns="http://www.w3.org/2000/svg" viewBox="0 0 256 256" fill="none" shape-rendering="auto"><desc>"Croodles - Doodle your face" by "vijay verma", licensed under "CC BY 4.0". / Remix of the original. - Created with dicebear.com</desc><metadata xmlns:dc="http://purl.org/dc/elements/1.1/" xmlns:cc="http://creativecommons.org/ns#" xmlns:rdf="http://www.w3.org/1999/02/22-rdf-syntax-ns#"><rdf:RDF><cc:Work><dc:title>Croodles - Doodle your face</dc:title><dc:creator><cc:Agent rdf:about="https://vijayverma.co/"><dc:title>vijay verma</dc:title></cc:Agent></dc:creator><dc:source>https://www.figma.com/community/file/966199982810283152</dc:source><cc:license rdf:resource="https://creativecommons.org/licenses/by/4.0/" /></cc:Work></rdf:RDF></metadata><mask id="viewboxMask"><rect width="256" height="256" rx="0" ry="0" x="0" y="0" fill="#fff" /></mask><g mask="url(#viewboxMask)"><path d="M73.9 102a57.1 57.1 0 0 1 5-14.8c2.8-4.9 8.7-9.3 16.2-12.8a89.7 89.7 0 0 1 26.2-7.6c19-2.5 40.4.5 53.6 14.5.3.3.4.7.3 1.2 2.1 4 4.3 9.8 6.3 16.8 1.3-.5 3-.9 4.6-.7 2 0 4 .9 5.2 3 2 3.6 2.2 9.1.7 15.4a7.4 7.4 0 0 1-3 4.7c-.9.5-1.7.8-2.5 1 1.2 7.8 2.1 16 2.5 24.3.5 13.2-.3 26.3-3.3 37.3-3 11-8.4 20-17 24.7a78.6 78.6 0 0 1-56 8 51 51 0 0 1-37.2-31.5 161.1 161.1 0 0 1-5.1-49.6 246 246 0 0 1 .3-8.4 4.9 4.9 0 0 1-4.9-2.1 17.4 17.4 0 0 1-2.6-8.2c-.7-5.7.2-10 2.3-12.8a7 7 0 0 1 4-2.7c1.4-.4 3-.2 4.4.3Z" fill="#ffffff"/><g stroke="#000" stroke-width="3" stroke-linecap="round" stroke-linejoin="round"><path d="M79 87.3c-10.5 19.4-10.9 77.8-3.3 99 11.5 32.3 56.4 43.4 93.3 23.3 33.3-18.1 18-105 6.1-127.6"/><path d="M183 100.2c2.5-1.1 6.8-1.7 8.6 1.5 1.9 3.2 2 8.4.6 14.7-1 4-3.8 4.8-5.7 4.8M72.7 103c-6-2.6-10.8 2.6-9.5 13.7 1 7.8 3.4 9.6 6 9.3"/></g><g transform="translate(115 126)"><path d="M21.7 10c5 4 12 23 6 29S19 34.3 14 34.3c-5.1 0-9 6-8.5-1 .4-5.6 4-5.5 4.7-5.8" stroke="#000" stroke-width="3" stroke-linecap="round" stroke-linejoin="round"/></g><g transform="translate(61 138)"></g><g transform="translate(98 188)"><path d="M13.6 13.8c4.7 4 13.5 6.5 22.5 5.4A25 25 0 0 0 54.9 8.5M10 16.5c1.6-1 4.8-3.7 5-6.6M53.1 6c1 1.6 3.8 4.8 6.6 5" stroke="#000" stroke-width="3" stroke-linecap="round" stroke-linejoin="round"/></g><g transform="translate(-2 -23)"><g stroke="#ffc700" stroke-width="3" stroke-linecap="round" stroke-linejoin="round"><path d="M84.5 109.8c-19 22.5 5.5 100.5-7 132-4.3 10.8-20.5 19-33.5 16.5M145 68.3c9-8.5 24.1-7.2 34.5 0 13 9 26 24 31.5 106.5s25 82.5 33.5 81"/><path d="M144.5 79.8c-1.5 4-2 9.4-22 12-29 3.9-50.5-3-59 31s-.4 87.5-8 108.5-22.5 21.5-31 16.5"/><path d="M148.5 79.3c0 10-7 16-21.5 17-20.7 1.5-32.5-6.5-51 17.5-13.4 17.4 2.5 75.5-8 109.5-5 16.2-21 19-25 16.5M142 75.3c-3.5 3.5-4.5 6.2-24.5 9-25 3.5-41 4-50.5 17"/><path d="M142.5 71.3c-2.2 2.7-6.8 4.8-22 6-19 1.5-40 4.5-51 17"/><path d="M143 64.3c-5.3-3-24-6.5-45 2-24.6 10-47.3 26-54.5 71.5-7 44.5-7.6 61.5-10 81-.8 6.5-5.5 9-10 9"/><path d="M140 67.8c-17-2-29 0-46.5 9-15.5 8-32.5 20.5-38 62s-3.5 65-7.5 80c-3.3 12.3-12 13.5-17 13.5"/><path d="M21 241.8c4.7 1.5 15.6.3 18.5-18 4.5-28.5 5.6-53.7 7-76.5 1-16.5 3-41.5 35-62.5M148 70.8c14-4.5 33.4-5 41 24.5 9.5 37 12.5 138 22 150a20 20 0 0 0 23 6.5"/><path d="M146 75.3c11-3 30.5-4.5 37 21 6.2 24.5-.5 103.5 2.5 125.5s18.5 37.5 37 30"/><path d="M152 81.3c13.3-4 39.4 3.6 41 68 2 80.5 1.5 101 31 108"/><path d="M152 85.3c18.5 1.5 28.4 18.7 30 41.5 2 28.5-18.5 95.5 0 122 14.8 21.2 30.8 22.5 37 20.5"/></g></g><g transform="translate(71 156)"></g><g transform="translate(70 84)"><path d="M33 35.6c-1.8-1.7.5-4.4 2.5-3.4 2.5 1.3 3.4 4.3 1.2 6.5s-7.2.8-7.5-4.5c-.3-5.3 6.5-9.2 10-3 3.3 6.3 2.2 11.9-5.2 11.9-5.1 0-7.3-3.6-7.9-7-1-6.7 2.5-13.6 9.7-12 4.5 1 9.7 4 8.8 13.3-1 9.3-6 10.3-12.3 9.2-7.7-1.3-9.8-8.2-7.3-16M78.5 35.6c-1.9-1.7.4-4.4 2.4-3.4 2.5 1.3 3.4 4.3 1.2 6.5-2.1 2.2-7.1.8-7.5-4.5-.3-5.3 6.5-9.2 10-3 3.3 6.3 2.2 11.9-5.2 11.9-5.1 0-7.3-3.6-7.8-7-1-6.7 2.4-13.6 9.7-12 4.4 1 9.6 4 8.7 13.3-1 9.3-6 10.3-12.3 9.2-7.7-1.3-9.8-8.2-7.3-16M29.8 15.9c3 2.2 8.8 2.6 12 1M72.2 16.8c3.6 1 9.2-.3 11.8-2.8" stroke="#000" stroke-width="3" stroke-linecap="round" stroke-linejoin="round"/></g></g></svg>