<svg xmlns="http://www.w3.org/2000/svg" viewBox="0 0 100 100" fill="none" shape-rendering="auto"><desc>"Thumbs" by "Florian Körner", licensed under "CC0 1.0". / Remix of the original. - Created with dicebear.com</desc><metadata xmlns:dc="http://purl.org/dc/elements/1.1/" xmlns:cc="http://creativecommons.org/ns#" xmlns:rdf="http://www.w3.org/1999/02/22-rdf-syntax-ns#"><rdf:RDF><cc:Work><dc:title>Thumbs</dc:title><dc:creator><cc:Agent rdf:about="https://dicebear.com"><dc:title>Florian Körner</dc:title></cc:Agent></dc:creator><dc:source>https://dicebear.com</dc:source><cc:license rdf:resource="https://creativecommons.org/publicdomain/zero/1.0/" /></cc:Work></rdf:RDF></metadata><mask id="viewboxMask"><rect width="100" height="100" rx="0" ry="0" x="0" y="0" fill="#fff" /></mask><g mask="url(#viewboxMask)"><rect fill="#1c799f" width="100" height="100" x="0" y="0" /><g transform="translate(4, 0) rotate(-19 50 70)"><path d="M95 53.33C95 29.4 74.85 10 50 10S5 29.4 5 53.33V140h90V53.33Z" fill="#69d2e7"/><g transform="translate(29 33)"><g transform="translate(-13, -9) rotate(-17 21 21)"><g transform="translate(0 1)"><path d="M9.5 10c-3.88 0-7.11-4.23-6.4-4.85.71-.62 2.63 1.3 6.4 1.3 3.77 0 5.69-2 6.4-1.3S13.38 10 9.5 10ZM32.5 10c-3.88 0-7.11-4.23-6.4-4.85.71-.62 2.63 1.3 6.4 1.3 3.77 0 5.69-2 6.4-1.3S36.38 10 32.5 10Z" fill="#ffffff"/></g><g transform="translate(6 27)"><path d="M15 11C4.52 11 2.42 2.82 3.12 2.14 3.82 1.46 8.02 3.5 15 3.5c6.99 0 11.18-2.04 11.88-1.36.7.68-1.4 8.86-11.88 8.86Z" fill="#ffffff"/></g></g></g></g></g></svg>