<svg xmlns="http://www.w3.org/2000/svg" viewBox="0 0 100 100" fill="none" shape-rendering="auto"><desc>"Thumbs" by "Florian Körner", licensed under "CC0 1.0". / Remix of the original. - Created with dicebear.com</desc><metadata xmlns:dc="http://purl.org/dc/elements/1.1/" xmlns:cc="http://creativecommons.org/ns#" xmlns:rdf="http://www.w3.org/1999/02/22-rdf-syntax-ns#"><rdf:RDF><cc:Work><dc:title>Thumbs</dc:title><dc:creator><cc:Agent rdf:about="https://dicebear.com"><dc:title>Florian Körner</dc:title></cc:Agent></dc:creator><dc:source>https://dicebear.com</dc:source><cc:license rdf:resource="https://creativecommons.org/publicdomain/zero/1.0/" /></cc:Work></rdf:RDF></metadata><mask id="viewboxMask"><rect width="100" height="100" rx="0" ry="0" x="0" y="0" fill="#fff" /></mask><g mask="url(#viewboxMask)"><rect fill="#0a5b83" width="100" height="100" x="0" y="0" /><g transform="translate(-1, 1) rotate(-1 50 70)"><path d="M95 53.33C95 29.4 74.85 10 50 10S5 29.4 5 53.33V140h90V53.33Z" fill="#f1f4dc"/><g transform="translate(29 33)"><g transform="translate(-4, 12) rotate(11 21 21)"><g transform="translate(0 5)"><path d="M14 8c0 1.66-1.12 3-2.5 3S9 9.66 9 8s1.12-3 2.5-3S14 6.34 14 8ZM33 8c0 1.66-1.12 3-2.5 3S28 9.66 28 8s1.12-3 2.5-3S33 6.34 33 8Z" fill="#000000"/></g><g transform="translate(6 23)"><path d="M15.2 3.84c0-.67-4.2-2-4.2-2.67 0-.66 7 .67 7 2.67S13.8 6.5 13.8 6.5s4.2.67 4.2 2.66c0 2-7 3.33-7 2.67 0-.67 4.2-2 4.2-2.67 0-.66-3.5-1.33-3.5-2.66s3.5-2 3.5-2.66Z" fill="#000000"/></g></g></g></g></g></svg>