<svg xmlns="http://www.w3.org/2000/svg" viewBox="0 0 100 100" fill="none" shape-rendering="auto"><desc>"Thumbs" by "Florian Körner", licensed under "CC0 1.0". / Remix of the original. - Created with dicebear.com</desc><metadata xmlns:dc="http://purl.org/dc/elements/1.1/" xmlns:cc="http://creativecommons.org/ns#" xmlns:rdf="http://www.w3.org/1999/02/22-rdf-syntax-ns#"><rdf:RDF><cc:Work><dc:title>Thumbs</dc:title><dc:creator><cc:Agent rdf:about="https://dicebear.com"><dc:title>Florian Körner</dc:title></cc:Agent></dc:creator><dc:source>https://dicebear.com</dc:source><cc:license rdf:resource="https://creativecommons.org/publicdomain/zero/1.0/" /></cc:Work></rdf:RDF></metadata><mask id="viewboxMask"><rect width="100" height="100" rx="0" ry="0" x="0" y="0" fill="#fff" /></mask><g mask="url(#viewboxMask)"><rect fill="#f88c49" width="100" height="100" x="0" y="0" /><g transform="translate(1, 1) rotate(-20 50 70)"><path d="M95 53.33C95 29.4 74.85 10 50 10S5 29.4 5 53.33V140h90V53.33Z" fill="#f1f4dc"/><g transform="translate(29 33)"><g transform="translate(2, 0) rotate(-8 21 21)"><g transform="translate(0 5)"><path d="M14 8c0 2.2-1.34 4-3 4s-3-1.8-3-4 1.34-4 3-4 3 1.8 3 4ZM28.5 5C25.29 5 24 6.36 24 7.04c0 3.4 1.29 1.35 4.5 1.35S33 10.43 33 7.04C33 6.36 31.71 5 28.5 5Z" fill="#000000"/></g><g transform="translate(6 23)"><path d="M15 14C1.9 14-.72 1.29.15.23 1.03-.83 6.27 2.11 15 2.11S28.97-.83 29.85.23C30.72 1.3 28.1 14 15 14Z" fill="#000000"/></g></g></g></g></g></svg>