<svg xmlns="http://www.w3.org/2000/svg" viewBox="0 0 100 100" fill="none" shape-rendering="auto"><desc>"Thumbs" by "Florian Körner", licensed under "CC0 1.0". / Remix of the original. - Created with dicebear.com</desc><metadata xmlns:dc="http://purl.org/dc/elements/1.1/" xmlns:cc="http://creativecommons.org/ns#" xmlns:rdf="http://www.w3.org/1999/02/22-rdf-syntax-ns#"><rdf:RDF><cc:Work><dc:title>Thumbs</dc:title><dc:creator><cc:Agent rdf:about="https://dicebear.com"><dc:title>Florian Körner</dc:title></cc:Agent></dc:creator><dc:source>https://dicebear.com</dc:source><cc:license rdf:resource="https://creativecommons.org/publicdomain/zero/1.0/" /></cc:Work></rdf:RDF></metadata><mask id="viewboxMask"><rect width="100" height="100" rx="0" ry="0" x="0" y="0" fill="#fff" /></mask><g mask="url(#viewboxMask)"><rect fill="#69d2e7" width="100" height="100" x="0" y="0" /><g transform="translate(-2, 1) rotate(15 50 70)"><path d="M95 53.33C95 29.4 74.85 10 50 10S5 29.4 5 53.33V140h90V53.33Z" fill="#f1f4dc"/><g transform="translate(29 33)"><g transform="translate(2, -7) rotate(-1 21 21)"><g transform="translate(0 2)"><path d="M-1.75 8.12C-.34 11.86 10 16 10 16s5.17-9.58 3.76-13.32c0 0-1.41-3.74-5.3-2.38-3.87 1.36-2.7 4.48-2.7 4.48S4.6 1.66.73 3.02c-3.88 1.36-2.47 5.1-2.47 5.1ZM28.24 2.68C26.84 6.42 32 16 32 16s10.34-4.14 11.75-7.88c0 0 1.41-3.74-2.47-5.1-3.87-1.36-5.05 1.76-5.05 1.76s1.18-3.12-2.7-4.48c-3.88-1.36-5.29 2.38-5.29 2.38Z" fill="#000000"/></g><g transform="translate(6 26)"><path d="M15 11C4.52 11 2.42 2.82 3.12 2.14 3.82 1.46 8.02 3.5 15 3.5c6.99 0 11.18-2.04 11.88-1.36.7.68-1.4 8.86-11.88 8.86Z" fill="#000000"/></g></g></g></g></g></svg>