<svg xmlns="http://www.w3.org/2000/svg" viewBox="0 0 100 100" fill="none" shape-rendering="auto"><desc>"Thumbs" by "Florian Körner", licensed under "CC0 1.0". / Remix of the original. - Created with dicebear.com</desc><metadata xmlns:dc="http://purl.org/dc/elements/1.1/" xmlns:cc="http://creativecommons.org/ns#" xmlns:rdf="http://www.w3.org/1999/02/22-rdf-syntax-ns#"><rdf:RDF><cc:Work><dc:title>Thumbs</dc:title><dc:creator><cc:Agent rdf:about="https://dicebear.com"><dc:title>Florian Körner</dc:title></cc:Agent></dc:creator><dc:source>https://dicebear.com</dc:source><cc:license rdf:resource="https://creativecommons.org/publicdomain/zero/1.0/" /></cc:Work></rdf:RDF></metadata><mask id="viewboxMask"><rect width="100" height="100" rx="0" ry="0" x="0" y="0" fill="#fff" /></mask><g mask="url(#viewboxMask)"><rect fill="#0a5b83" width="100" height="100" x="0" y="0" /><g transform="translate(2, 4) rotate(17 50 70)"><path d="M95 53.33C95 29.4 74.85 10 50 10S5 29.4 5 53.33V140h90V53.33Z" fill="#f88c49"/><g transform="translate(29 33)"><g transform="translate(-2, 2) rotate(5 21 21)"><g transform="translate(0 5)"><path d="M-.75 8.12C.66 11.86 11 16 11 16s5.17-9.58 3.76-13.32c0 0-1.41-3.74-5.3-2.38-3.87 1.36-2.7 4.48-2.7 4.48S5.6 1.66 1.73 3.02c-3.88 1.36-2.47 5.1-2.47 5.1ZM27.24 2.68C25.84 6.42 31 16 31 16s10.34-4.14 11.75-7.88c0 0 1.41-3.74-2.47-5.1-3.87-1.36-5.05 1.76-5.05 1.76s1.18-3.12-2.7-4.48c-3.88-1.36-5.29 2.38-5.29 2.38Z" fill="#ffffff"/></g><g transform="translate(6 23)"><path d="M15.5 10c-5.07 0-9.3-5.23-8.37-5.88.93-.65 3.45 2.15 8.37 2.15 4.92 0 7.44-2.88 8.37-2.15.93.73-3.3 5.88-8.37 5.88Z" fill="#ffffff"/></g></g></g></g></g></svg>