<svg id="visual" viewBox="0 0 3840 2160" width="3840" height="2160" xmlns="http://www.w3.org/2000/svg" xmlns:xlink="http://www.w3.org/1999/xlink" version="1.1"><path d="M0 1176L71.2 1143C142.3 1110 284.7 1044 426.8 975.7C569 907.3 711 836.7 853.2 908.5C995.3 980.3 1137.7 1194.7 1280 1285C1422.3 1375.3 1564.7 1341.7 1706.8 1305C1849 1268.3 1991 1228.7 2133.2 1219.7C2275.3 1210.7 2417.7 1232.3 2560 1296.3C2702.3 1360.3 2844.7 1466.7 2986.8 1506.2C3129 1545.7 3271 1518.3 3413.2 1475.2C3555.3 1432 3697.7 1373 3768.8 1343.5L3840 1314L3840 2161L3768.8 2161C3697.7 2161 3555.3 2161 3413.2 2161C3271 2161 3129 2161 2986.8 2161C2844.7 2161 2702.3 2161 2560 2161C2417.7 2161 2275.3 2161 2133.2 2161C1991 2161 1849 2161 1706.8 2161C1564.7 2161 1422.3 2161 1280 2161C1137.7 2161 995.3 2161 853.2 2161C711 2161 569 2161 426.8 2161C284.7 2161 142.3 2161 71.2 2161L0 2161Z" fill="rgba(0, 102, 255, 0.09)" stroke-linecap="round" stroke-linejoin="miter"></path></svg>