<?xml version="1.0" encoding="utf-8"?>
<svg viewBox="34.972 129.501 187.237 30.702" xmlns="http://www.w3.org/2000/svg">
  <path d="M 49.921 141.261 L 42.541 145.581 L 49.921 149.901 L 49.921 153.231 L 36.631 145.581 L 49.921 137.901 Z" style="fill: rgb(37, 99, 235); white-space: pre;"/>
  <path d="M 65.402 151.641 Q 64.562 152.331 63.377 152.721 Q 62.192 153.111 60.992 153.111 Q 58.922 153.111 57.347 152.301 Q 55.772 151.491 54.902 150.021 Q 54.032 148.551 54.032 146.511 Q 54.032 144.501 54.962 143.016 Q 55.892 141.531 57.422 140.736 Q 58.952 139.941 60.662 139.941 Q 62.222 139.941 63.422 140.361 Q 64.622 140.781 65.492 141.531 L 63.962 143.541 Q 63.452 143.121 62.687 142.791 Q 61.922 142.461 60.932 142.461 Q 59.882 142.461 59.012 142.986 Q 58.142 143.511 57.632 144.426 Q 57.122 145.341 57.122 146.511 Q 57.122 147.621 57.647 148.566 Q 58.172 149.511 59.102 150.051 Q 60.032 150.591 61.232 150.591 Q 62.012 150.591 62.672 150.366 Q 63.332 150.141 63.842 149.721 Z" style="fill: rgb(251, 248, 248); white-space: pre;"/>
  <path d="M 67.856 146.391 Q 67.856 144.501 68.756 142.986 Q 69.656 141.471 71.246 140.601 Q 72.836 139.731 74.876 139.731 Q 76.946 139.731 78.506 140.601 Q 80.066 141.471 80.921 142.986 Q 81.776 144.501 81.776 146.391 Q 81.776 148.281 80.921 149.811 Q 80.066 151.341 78.506 152.226 Q 76.946 153.111 74.846 153.111 Q 72.836 153.111 71.261 152.301 Q 69.686 151.491 68.771 149.976 Q 67.856 148.461 67.856 146.391 Z M 70.976 146.421 Q 70.976 147.591 71.486 148.536 Q 71.996 149.481 72.866 150.036 Q 73.736 150.591 74.816 150.591 Q 75.926 150.591 76.796 150.036 Q 77.666 149.481 78.161 148.536 Q 78.656 147.591 78.656 146.421 Q 78.656 145.251 78.161 144.321 Q 77.666 143.391 76.796 142.821 Q 75.926 142.251 74.816 142.251 Q 73.706 142.251 72.836 142.821 Q 71.966 143.391 71.471 144.336 Q 70.976 145.281 70.976 146.421 Z" style="fill: rgb(251, 248, 248); white-space: pre;"/>
  <path d="M 90.562 153.111 Q 88.792 153.111 87.382 152.286 Q 85.972 151.461 85.162 149.931 Q 84.352 148.401 84.352 146.361 Q 84.352 144.261 85.222 142.776 Q 86.092 141.291 87.577 140.496 Q 89.062 139.701 90.922 139.701 Q 92.362 139.701 93.667 140.286 Q 94.972 140.871 95.692 141.921 L 95.602 142.971 L 95.602 129.501 L 98.662 129.501 L 98.662 152.811 L 95.572 152.811 L 95.572 149.841 L 95.902 150.651 Q 94.972 151.701 93.622 152.406 Q 92.272 153.111 90.562 153.111 Z M 91.522 150.501 Q 92.572 150.501 93.382 150.141 Q 94.192 149.781 94.762 149.106 Q 95.332 148.431 95.572 147.531 L 95.572 145.011 Q 95.362 144.171 94.777 143.526 Q 94.192 142.881 93.352 142.521 Q 92.512 142.161 91.522 142.161 Q 90.412 142.161 89.497 142.686 Q 88.582 143.211 88.027 144.141 Q 87.472 145.071 87.472 146.301 Q 87.472 147.471 88.027 148.431 Q 88.582 149.391 89.512 149.946 Q 90.442 150.501 91.522 150.501 Z" style="fill: rgb(251, 248, 248); white-space: pre;"/>
  <path d="M 109.314 153.111 Q 107.124 153.111 105.564 152.256 Q 104.004 151.401 103.164 149.886 Q 102.324 148.371 102.324 146.421 Q 102.324 144.561 103.269 143.046 Q 104.214 141.531 105.819 140.631 Q 107.424 139.731 109.374 139.731 Q 111.894 139.731 113.559 141.201 Q 115.224 142.671 115.794 145.311 L 105.564 148.851 L 104.844 147.051 L 113.034 144.111 L 112.404 144.501 Q 112.044 143.571 111.264 142.866 Q 110.484 142.161 109.134 142.161 Q 108.054 142.161 107.199 142.686 Q 106.344 143.211 105.849 144.126 Q 105.354 145.041 105.354 146.271 Q 105.354 147.531 105.879 148.476 Q 106.404 149.421 107.319 149.961 Q 108.234 150.501 109.374 150.501 Q 110.184 150.501 110.919 150.201 Q 111.654 149.901 112.314 149.451 L 113.724 151.731 Q 112.734 152.361 111.579 152.736 Q 110.424 153.111 109.314 153.111 Z" style="fill: rgb(251, 248, 248); white-space: pre;"/>
  <path d="M 122.872 153.081 Q 121.492 153.081 120.202 152.586 Q 118.912 152.091 118.072 151.131 L 119.392 149.391 Q 120.202 150.141 121.027 150.516 Q 121.852 150.891 122.602 150.891 Q 123.202 150.891 123.682 150.756 Q 124.162 150.621 124.462 150.291 Q 124.762 149.961 124.762 149.421 Q 124.762 148.791 124.342 148.431 Q 123.922 148.071 123.262 147.831 Q 122.602 147.591 121.852 147.381 Q 120.262 146.871 119.452 145.926 Q 118.642 144.981 118.642 143.691 Q 118.642 142.701 119.137 141.816 Q 119.632 140.931 120.652 140.361 Q 121.672 139.791 123.172 139.791 Q 124.552 139.791 125.602 140.106 Q 126.652 140.421 127.552 141.171 L 126.352 143.031 Q 125.812 142.491 125.077 142.206 Q 124.342 141.921 123.742 141.891 Q 123.202 141.891 122.752 142.056 Q 122.302 142.221 122.032 142.536 Q 121.762 142.851 121.762 143.271 Q 121.732 143.871 122.167 144.246 Q 122.602 144.621 123.292 144.846 Q 123.982 145.071 124.642 145.311 Q 125.572 145.581 126.292 146.046 Q 127.012 146.511 127.432 147.171 Q 127.852 147.831 127.852 148.851 Q 127.852 149.961 127.312 150.936 Q 126.772 151.911 125.662 152.496 Q 124.552 153.081 122.872 153.081 Z" style="fill: rgb(251, 248, 248); white-space: pre;"/>
  <path d="M 131.66 152.811 L 131.66 129.501 L 134.66 129.501 L 134.66 143.091 L 134.63 142.581 Q 135.26 141.351 136.55 140.541 Q 137.84 139.731 139.64 139.731 Q 141.41 139.731 142.565 140.781 Q 143.72 141.831 143.75 143.511 L 143.75 152.811 L 140.66 152.811 L 140.66 144.591 Q 140.63 143.631 140.09 143.016 Q 139.55 142.401 138.41 142.371 Q 137.39 142.371 136.55 142.986 Q 135.71 143.601 135.23 144.666 Q 134.75 145.731 134.75 147.081 L 134.75 152.811 Z" style="fill: rgb(251, 248, 248); white-space: pre;"/>
  <path d="M 153.734 153.111 Q 151.964 153.111 150.524 152.376 Q 149.084 151.641 148.244 150.171 Q 147.404 148.701 147.404 146.541 Q 147.404 144.411 148.289 142.881 Q 149.174 141.351 150.629 140.526 Q 152.084 139.701 153.794 139.701 Q 155.594 139.701 156.749 140.466 Q 157.904 141.231 158.564 142.251 L 158.354 142.731 L 158.654 140.241 L 161.504 140.241 L 161.504 152.811 L 158.414 152.811 L 158.414 149.661 L 158.744 150.411 Q 158.624 150.651 158.234 151.086 Q 157.844 151.521 157.199 152.001 Q 156.554 152.481 155.699 152.796 Q 154.844 153.111 153.734 153.111 Z M 154.574 150.591 Q 155.564 150.591 156.344 150.231 Q 157.124 149.871 157.664 149.211 Q 158.204 148.551 158.414 147.651 L 158.414 145.041 Q 158.174 144.201 157.604 143.586 Q 157.034 142.971 156.239 142.611 Q 155.444 142.251 154.484 142.251 Q 153.404 142.251 152.504 142.776 Q 151.604 143.301 151.064 144.231 Q 150.524 145.161 150.524 146.391 Q 150.524 147.561 151.079 148.521 Q 151.634 149.481 152.564 150.036 Q 153.494 150.591 154.574 150.591 Z" style="fill: rgb(251, 248, 248); white-space: pre;"/>
  <path d="M 176.536 151.641 Q 175.696 152.331 174.511 152.721 Q 173.326 153.111 172.126 153.111 Q 170.056 153.111 168.481 152.301 Q 166.906 151.491 166.036 150.021 Q 165.166 148.551 165.166 146.511 Q 165.166 144.501 166.096 143.016 Q 167.026 141.531 168.556 140.736 Q 170.086 139.941 171.796 139.941 Q 173.356 139.941 174.556 140.361 Q 175.756 140.781 176.626 141.531 L 175.096 143.541 Q 174.586 143.121 173.821 142.791 Q 173.056 142.461 172.066 142.461 Q 171.016 142.461 170.146 142.986 Q 169.276 143.511 168.766 144.426 Q 168.256 145.341 168.256 146.511 Q 168.256 147.621 168.781 148.566 Q 169.306 149.511 170.236 150.051 Q 171.166 150.591 172.366 150.591 Q 173.146 150.591 173.806 150.366 Q 174.466 150.141 174.976 149.721 Z" style="fill: rgb(251, 248, 248); white-space: pre;"/>
  <path d="M 180.077 152.811 L 180.077 129.501 L 183.167 129.501 L 183.167 152.811 Z M 186.227 144.411 L 191.987 152.811 L 188.387 152.811 L 184.187 146.181 Z M 182.207 148.941 L 181.907 145.971 L 189.527 139.971 L 191.417 141.621 Z" style="fill: rgb(251, 248, 248); white-space: pre;"/>
  <path d="M 204.713 130.401 Q 202.613 136.161 200.498 141.891 Q 198.383 147.621 196.253 153.381 L 193.463 153.381 Q 195.593 147.621 197.708 141.891 Q 199.823 136.161 201.923 130.401 Z" style="fill: rgb(37, 99, 235); white-space: pre; paint-order: fill;"/>
  <path d="M 207.405 149.871 L 214.815 145.581 L 207.405 141.261 L 207.405 137.901 L 220.695 145.581 L 207.405 153.231 L 207.405 153.231 Z" style="fill: rgb(37, 99, 235); white-space: pre; paint-order: fill;"/>
</svg>